<?xml version="1.0" encoding="utf-8"?>
<!-- Generator: Adobe Illustrator 22.0.0, SVG Export Plug-In . SVG Version: 6.00 Build 0)  -->
<svg version="1.1" id="Layer_1" xmlns="http://www.w3.org/2000/svg" xmlns:xlink="http://www.w3.org/1999/xlink" x="0px" y="0px"
	 viewBox="0 0 883.2 168.6" style="enable-background:new 0 0 883.2 168.6;" xml:space="preserve">
<style type="text/css">
	.st0{fill:#808080;}
	.st1{fill:#003884;}
	.st2{fill:url(#SVGID_1_);}
</style>
<title>Corona for light BG</title>
<rect x="168.7" y="113.1" width="714.5" height="4.2"/>
<path d="M267.8,34.3l-8.1,13.6l-1.5-0.9c0.3-0.8,0.4-1.7,0.5-2.6c0-1.5-2.3-3.3-7-5.7c-6.6-3.2-13.8-4.8-21.1-4.7
	c-10.3,0-18.5,2.8-25,8.5s-9.7,13.3-9.7,22.5c-0.2,8.7,3.5,17.1,10.1,22.8c6.5,5.9,14.6,8.8,24.1,8.8c8.9,0.1,17.6-2.7,24.7-8.1
	c3.3-2.5,4.8-4.2,4.8-5.2c-0.1-0.9-0.4-1.7-0.9-2.5l1.3-1l9.8,11.8l-1.4,1.1c-0.7-0.7-1.5-1.2-2.5-1.4c-0.8,0.2-1.5,0.5-2.1,1.1
	c-2.6,2.1-5.5,4-8.4,5.7c-2.3,1.3-4.8,2.4-7.3,3.3c-5.8,1.9-11.9,2.9-18,2.8c-12.6,0-22.9-3.5-30.8-10.5
	c-8.3-7.4-12.4-16.7-12.4-28.2c-0.2-8.5,2.6-16.7,7.8-23.4c8.1-10.3,20.3-15.5,36.5-15.5c10.9,0,21.7,3,31.1,8.5
	c0.4,0.2,0.9,0.4,1.4,0.5c0.5,0,1.4-0.7,2.6-2.1L267.8,34.3z"/>
<path d="M343.9,26.5c13.2,0,23.8,3.4,32,10.4c4.5,3.8,8,8.7,10.2,14.2c1.9,4.7,2.9,9.7,2.8,14.8c0,7.1-2.2,14.1-6.1,20.1
	c-4.4,6.8-11,12.1-18.6,14.9c-6.5,2.3-13.3,3.5-20.2,3.4c-13.1,0-23.8-3.4-31.8-10.4c-4.5-3.9-8-8.7-10.2-14.2
	c-1.9-4.5-2.8-9.4-2.8-14.3c-0.1-15.9,9.8-30.1,24.7-35.4C330.3,27.5,337.1,26.4,343.9,26.5z M343.9,33.9c-11.2,0-20.2,3.2-26.7,9.4
	c-6,5.7-9,13-9,21.8c-0.2,8.2,3.1,16.2,9,21.9c6.5,6.3,15.4,9.4,26.8,9.4s20.3-3.2,26.9-9.4c5.9-5.5,9.1-13.3,8.9-21.4
	c0-9.2-3-16.6-8.9-22.2c-3.3-3.1-7.2-5.5-11.5-7.1C354.4,34.7,349.2,33.9,343.9,33.9z"/>
<path d="M443,69v27.3c-0.1,1.1,0.2,2.2,0.7,3.2c0.8,0.8,1.7,1.3,2.8,1.5v1.7h-15.7V101c1.1-0.2,2.1-0.7,2.8-1.5
	c0.6-1,0.8-2.2,0.7-3.3v-62c0.1-1.1-0.2-2.3-0.7-3.3c-0.8-0.8-1.7-1.3-2.8-1.5v-1.7H472c4.5-0.1,9,0.2,13.4,0.9
	c3.1,0.5,6,1.6,8.6,3.2c2.5,1.6,4.6,3.7,6,6.3c1.8,3.1,2.7,6.7,2.7,10.3c0.2,5.3-1.9,10.4-5.7,14c-3.8,3.6-9,5.7-15.6,6.2l19,29.6
	c1,1.8,3,2.8,5,2.7v1.7H488v-1.7c1.8-0.3,2.7-0.8,2.7-1.5c-0.5-1.3-1.1-2.5-1.9-3.6L471.7,69H443z M443,61.9h30.4
	c3.1,0,6.2-0.1,9.3-0.5c2-0.3,3.9-0.9,5.6-1.9c3.8-2.2,5.7-5.9,5.7-11.1s-2-8.9-5.8-11.1c-1.8-1-3.7-1.6-5.7-1.9
	c-3.3-0.4-6.5-0.5-9.8-0.5H443V61.9z"/>
<path d="M582.4,26.5c13.2,0,23.8,3.4,32,10.4c4.5,3.8,8,8.7,10.2,14.2c1.9,4.7,2.9,9.7,2.8,14.8c0,7.1-2.2,14.1-6.1,20.1
	c-4.4,6.8-11,12.1-18.6,14.9c-6.5,2.3-13.3,3.5-20.2,3.4c-13.1,0-23.8-3.4-31.8-10.4c-4.5-3.9-8-8.7-10.2-14.2
	c-1.9-4.5-2.8-9.4-2.8-14.3c-0.1-15.9,9.8-30.1,24.7-35.4C568.8,27.5,575.6,26.4,582.4,26.5z M582.4,33.9c-11.2,0-20.2,3.2-26.7,9.4
	c-6,5.7-9,13-9,21.8c-0.2,8.2,3.1,16.2,9,21.9c6.5,6.3,15.4,9.4,26.8,9.4s20.3-3.2,26.9-9.4c5.9-5.5,9.1-13.3,8.9-21.4
	c0-9.2-3-16.6-8.9-22.2c-3.3-3.1-7.2-5.5-11.5-7.1C592.9,34.7,587.7,33.9,582.4,33.9z"/>
<path d="M673.1,37.3v59c-0.1,1.1,0.2,2.2,0.7,3.2c0.8,0.8,1.7,1.3,2.8,1.5v1.7h-14.9V101c1.1-0.1,2.1-0.7,2.8-1.5
	c0.5-1,0.8-2.2,0.7-3.3v-62c0.1-1.1-0.2-2.3-0.7-3.3c-0.8-0.8-1.7-1.3-2.8-1.5v-1.7h21.5v1.7c-1.7,0.6-2.6,1.4-2.6,2.5
	c0,0.8,0.9,2.1,2.6,4.1l45.2,53V34.3c0.1-1.1-0.2-2.3-0.7-3.3c-0.8-0.8-1.7-1.3-2.8-1.5v-1.7h14.9v1.7c-1.1,0.2-2.1,0.7-2.8,1.5
	c-0.6,1-0.8,2.2-0.7,3.3v62c-0.1,1.1,0.2,2.3,0.7,3.3c0.8,0.8,1.7,1.3,2.8,1.5v1.7h-17.3V101c1.7-0.4,2.5-1.2,2.5-2.2
	c0-0.8-0.8-2.1-2.3-3.9L673.1,37.3z"/>
<path d="M839.5,81.7h-40.1l-6.6,14.2c-0.4,0.9-0.8,1.8-0.9,2.8c0,1.1,1.1,1.8,3.3,2.2v1.7h-16.7V101c1.3-0.2,2.5-0.7,3.4-1.6
	c1.3-1.7,2.3-3.5,3.1-5.5l27.4-59.3c0.5-0.9,0.8-1.9,1-2.9c0-0.9-0.9-1.6-2.7-2.1v-1.7H829v1.7c-1.8,0.6-2.7,1.4-2.7,2.3
	c0.2,1,0.5,1.9,1,2.7l26.3,57.1c1.1,2.6,2.4,5,3.9,7.4c0.6,0.8,2,1.4,4,1.9v1.7h-17.8V101c2.1-0.3,3.2-1.1,3.2-2.4
	c-0.2-1.2-0.6-2.3-1.2-3.4L839.5,81.7z M836.3,74.6l-16.9-37l-16.8,37H836.3z"/>
<path class="st0" d="M198.8,154.8H221c0.4,0.1,0.9-0.1,1.2-0.4c0.4-0.4,0.6-0.8,0.7-1.3h0.8v9h-0.8c-0.1-0.5-0.4-0.9-0.7-1.3
	c-0.4-0.3-0.8-0.4-1.2-0.4h-31.9v-0.8c0.5-0.1,0.9-0.3,1.3-0.7c0.3-0.4,0.4-0.8,0.4-1.2v-29.3c0-0.4-0.1-0.9-0.4-1.2
	c-0.4-0.3-0.8-0.6-1.3-0.7v-0.8h11.3v0.8c-0.5,0.1-0.9,0.3-1.3,0.6c-0.3,0.4-0.4,0.8-0.4,1.2L198.8,154.8L198.8,154.8z"/>
<path class="st0" d="M247.8,153.4h-13.7l-1.5,3.1c-0.3,0.5-0.6,1.2-0.6,1.8c0,0.8,0.6,1.3,1.7,1.5v0.7h-10.9v-0.7
	c0.6,0,1.1-0.2,1.5-0.6c0.5-0.5,0.9-1.1,1.2-1.7l10.8-21c0.4-0.6,0.6-1.4,0.6-2.1c0-0.7-0.5-1.2-1.5-1.6v-0.7H247v0.7
	c-1,0.4-1.5,0.9-1.5,1.7c0,0.7,0.3,1.5,0.7,2.1l11.2,20.4c0.4,0.8,0.9,1.5,1.5,2.2c0.5,0.4,1,0.6,1.6,0.7v0.7h-12.1v-0.7
	c1.1-0.2,1.7-0.7,1.7-1.5c0-0.7-0.3-1.4-0.7-1.9L247.8,153.4z M245.7,149.4l-4.9-9.1l-4.6,9.1H245.7z"/>
<path class="st0" d="M281.8,140.8l-6.5,15.5c-0.3,0.6-0.4,1.2-0.5,1.9c0,0.9,0.6,1.5,1.8,1.7v0.7h-11.1v-0.7
	c1.1-0.3,1.6-0.8,1.6-1.7c-0.1-0.7-0.2-1.3-0.5-1.9l-7.9-19.4c-0.4-1.1-0.9-2.1-1.5-3c-0.5-0.6-1.2-1-1.9-1.1v-0.7h11.3v0.7
	c-1.1,0.3-1.6,0.9-1.6,1.6c0.1,0.6,0.2,1.2,0.5,1.8l5.6,13.4l5.5-13.3c0.3-0.6,0.4-1.2,0.5-1.8c0-0.8-0.6-1.4-1.8-1.7v-0.7h13.2v0.7
	c-1.1,0.4-1.7,0.9-1.7,1.8c0.1,0.6,0.2,1.2,0.5,1.7l5.4,13.4l5.4-13.6c0.2-0.5,0.3-1,0.3-1.5c0-0.4-0.1-0.8-0.4-1.1
	c-0.4-0.4-0.9-0.6-1.4-0.7v-0.7h11.6v0.7c-0.7,0.2-1.4,0.6-1.9,1.2c-0.6,0.9-1.1,1.9-1.5,2.9l-8,19.4c-0.3,0.6-0.4,1.2-0.4,1.8
	c0,1,0.6,1.6,1.8,1.8v0.7h-11.5v-0.7c1.1-0.3,1.7-0.9,1.7-1.9c-0.1-0.6-0.3-1.2-0.6-1.8L281.8,140.8z"/>
<path class="st0" d="M331.1,145.4v12.5c0,0.4,0.1,0.9,0.4,1.2c0.4,0.3,0.8,0.5,1.3,0.6v0.8h-11.3v-0.8c0.5-0.1,0.9-0.3,1.3-0.7
	c0.3-0.4,0.4-0.8,0.4-1.2v-29.3c0-0.4-0.1-0.9-0.4-1.2c-0.4-0.3-0.8-0.6-1.3-0.7v-0.8h32c0.4,0,0.8-0.1,1.2-0.3
	c0.4-0.4,0.6-0.8,0.7-1.3h0.8v9h-0.8c-0.1-0.5-0.4-0.9-0.7-1.3c-0.4-0.2-0.8-0.3-1.2-0.3h-22.4v8.3h14.7c0.4,0.1,0.9-0.1,1.2-0.4
	c0.4-0.4,0.6-0.8,0.7-1.3h0.8v8.8h-0.8c-0.1-0.5-0.4-0.9-0.7-1.3c-0.4-0.3-0.8-0.4-1.2-0.4L331.1,145.4L331.1,145.4z"/>
<path class="st0" d="M367.6,134.7v23.2c0,0.4,0.1,0.9,0.4,1.2c0.4,0.3,0.8,0.6,1.3,0.7v0.7h-10.5v-0.7c0.5-0.1,0.9-0.3,1.3-0.7
	c0.3-0.3,0.4-0.8,0.4-1.2v-23.3c0-0.4-0.1-0.9-0.4-1.2c-0.4-0.4-0.8-0.6-1.3-0.7V132h10.5v0.7c-0.5,0.1-0.9,0.3-1.3,0.7
	C367.7,133.8,367.6,134.2,367.6,134.7z"/>
<path class="st0" d="M381.7,148.9v9.1c0,0.4,0.1,0.9,0.4,1.2c0.4,0.3,0.8,0.6,1.3,0.7v0.7h-10.5v-0.7c0.5-0.1,0.9-0.3,1.3-0.7
	c0.3-0.3,0.4-0.8,0.4-1.2v-23.3c0-0.4-0.1-0.9-0.4-1.2c-0.4-0.4-0.8-0.6-1.3-0.7v-0.7h19.5c1.9-0.1,3.9,0.1,5.8,0.4
	c1.3,0.2,2.5,0.7,3.6,1.3c2.1,1.3,3.2,3.5,3.2,6.6c0.1,2-0.6,3.9-2,5.4c-1.3,1.3-3.4,2.2-6.4,2.8l5.6,7.5c0.7,1.1,1.5,2,2.5,2.8
	c0.6,0.5,1.3,0.8,2.1,0.9v0.7h-12.5v-0.7c0.9-0.2,1.4-0.6,1.4-1.1c-0.1-0.6-0.4-1.2-0.9-1.7l-5.9-8.1H381.7z M381.7,143.7h10.7
	c1.2,0,2.4-0.1,3.6-0.5c1.5-0.8,2-2.7,1.2-4.3c-0.2-0.4-0.5-0.7-0.8-0.9c-1.3-0.6-2.7-0.8-4.1-0.7h-10.7v6.4H381.7z"/>
<path class="st0" d="M427.7,160.5l-10.8-18.7v16.1c0,0.4,0.1,0.9,0.4,1.2c0.4,0.4,0.8,0.6,1.3,0.7v0.7h-9.9v-0.7
	c0.5-0.1,0.9-0.3,1.3-0.7c0.3-0.3,0.4-0.8,0.4-1.2v-23.3c0-0.4-0.1-0.9-0.4-1.2c-0.4-0.3-0.8-0.6-1.3-0.7V132h12.5v0.7
	c-0.8,0.3-1.2,0.7-1.2,1.4c0.1,0.9,0.4,1.8,0.9,2.5l7.4,12.9l7.5-12.7c0.6-0.8,1.1-1.8,1.3-2.8c0-0.7-0.4-1.1-1.3-1.3V132H448v0.7
	c-0.5,0.1-0.9,0.3-1.3,0.7c-0.3,0.4-0.4,0.8-0.4,1.2v23.2c0,0.4,0.1,0.9,0.4,1.2c0.4,0.4,0.8,0.6,1.3,0.7v0.7h-10.5v-0.7
	c0.5-0.1,0.9-0.3,1.3-0.7c0.3-0.4,0.4-0.8,0.4-1.2v-16.1L427.7,160.5z"/>
<path class="st0" d="M454.1,166.9c1.2-0.7,2.3-1.6,3.1-2.7c0.7-1,1.2-2.2,1.4-3.4c-0.6,0.2-1.3,0.3-1.9,0.3c-1.1,0-2.1-0.4-2.8-1.2
	c-0.7-0.8-1.1-1.9-1.1-3c-0.1-1.1,0.3-2.2,1.1-3c0.8-0.7,1.8-1.1,2.9-1.1c1.5-0.1,2.9,0.7,3.7,1.9c0.7,1.2,1.1,2.7,1.1,4.1
	c0,3.7-2.1,7-6.2,9.8L454.1,166.9z"/>
<path class="st0" d="M499.7,146.5v11.4c0,0.4,0.1,0.9,0.4,1.2c0.4,0.3,0.8,0.5,1.3,0.6v0.8h-11.3v-0.8c0.5-0.1,0.9-0.3,1.3-0.7
	c0.3-0.4,0.4-0.8,0.4-1.2v-29.4c0-0.4-0.1-0.9-0.4-1.2c-0.4-0.4-0.8-0.6-1.3-0.7v-0.8h22.6c2.1,0,4.2,0.1,6.3,0.5
	c1.5,0.3,2.9,0.9,4.1,1.8c1.2,0.9,2.2,2.1,2.9,3.4c0.7,1.4,1,3,1,4.6c0,2.2-0.7,4.3-2,6.1c-1.1,1.5-2.7,2.6-4.5,3.2
	c-2.5,0.7-5.2,1.1-7.8,1h-13V146.5z M499.7,140.8h12.1c1.7,0.1,3.5-0.1,5.1-0.7c0.6-0.3,1.2-0.9,1.5-1.5c0.8-1.4,0.8-3.2,0-4.6
	c-0.3-0.6-0.9-1.2-1.5-1.5c-1-0.5-2.6-0.7-5.1-0.7h-12.1V140.8z"/>
<path class="st0" d="M530.4,152.8c1.2,0,2.3,0.4,3.1,1.2c0.8,0.8,1.3,1.9,1.3,3c0,1.1-0.5,2.2-1.3,2.9c-1.8,1.6-4.4,1.6-6.2,0
	c-0.8-0.8-1.3-1.9-1.3-3c0-1.1,0.5-2.2,1.3-2.9C528.1,153.2,529.2,152.7,530.4,152.8z"/>
<path class="st0" d="M568.8,151.7h-16.5l-2.4,4.9c-0.3,0.5-0.4,1-0.5,1.6c0,0.7,0.6,1.3,1.8,1.5v0.8h-12v-0.8
	c0.6-0.1,1.1-0.3,1.6-0.7c0.6-0.6,1-1.3,1.3-2l13.3-26.6c0.3-0.6,0.5-1.3,0.6-2c0-0.8-0.5-1.3-1.5-1.7v-0.8h12.8v0.8
	c-1,0.3-1.6,0.8-1.6,1.5c0,0.6,0.2,1.2,0.5,1.7l13.8,26.7c0.4,0.8,0.9,1.6,1.5,2.3c0.5,0.5,1.1,0.7,1.8,0.8v0.8H570v-0.8
	c1.2-0.2,1.8-0.7,1.8-1.6c-0.1-0.6-0.2-1.1-0.5-1.6L568.8,151.7z M566.6,147l-5.9-12.4l-6,12.4H566.6z"/>
<path class="st0" d="M590.6,152.8c1.2,0,2.3,0.4,3.1,1.2c0.8,0.8,1.3,1.9,1.3,3c0,1.1-0.5,2.2-1.3,2.9c-1.8,1.6-4.4,1.6-6.2,0
	c-0.8-0.8-1.3-1.9-1.3-3c0-1.1,0.5-2.2,1.3-2.9C588.3,153.2,589.5,152.8,590.6,152.8z"/>
<rect class="st1" width="161.1" height="168.6"/>
<g>
	<linearGradient id="SVGID_1_" gradientUnits="userSpaceOnUse" x1="5" y1="83.7015" x2="156" y2="83.7015">
		<stop  offset="0" style="stop-color:#D8AC1B"/>
		<stop  offset="6.000000e-02" style="stop-color:#DAB021"/>
		<stop  offset="0.14" style="stop-color:#DFBA33"/>
		<stop  offset="0.24" style="stop-color:#E7CB50"/>
		<stop  offset="0.34" style="stop-color:#F2E278"/>
		<stop  offset="0.44" style="stop-color:#FFFDA6"/>
		<stop  offset="0.59" style="stop-color:#F2E379"/>
		<stop  offset="0.78" style="stop-color:#E4C546"/>
		<stop  offset="0.92" style="stop-color:#DBB327"/>
		<stop  offset="1" style="stop-color:#D8AC1B"/>
	</linearGradient>
	<path class="st2" d="M156,39.5c0.1-2.6-0.6-4.8-2.3-6.6c-3-3.1-8.9-4.7-17.5-4.7c-3.8,0-7.6,0.4-11.3,1.2C103,14,81.1,6.2,59.9,6.2
		c-15.4,0-28.5,3.7-39,11.1C10.4,24.7,5,34.1,5,45.3c0,18.3,13.7,30.6,40.6,36.4c-7.1,12-10.7,23.9-10.7,35.5
		c0,12.3,4,22.8,11.9,31.3c7.3,8.1,17.6,12.8,28.5,12.8c0.2,0,0.5,0,0.7,0c16.3,0,31.4-6.4,44.9-18.9c13.4-12.5,20.2-26.7,20.2-42.1
		c0-15.4-6.6-23.1-19.5-23.1c-9.9,0-19.3,4.9-28.9,15c-9.4,9.8-14.2,20-14.2,30.3c0,7.9,4,9.5,7.4,9.5c5.2,0,8.1-3.1,8.1-8.8
		c0-5.9-3.7-6.8-5.9-6.8c-1.6,0-3.2,0.7-5,2.3c0.2-7.5,4.7-15.5,13.4-24.1c9.1-9,17.3-13.4,24.9-13.4c4.1-0.2,8.2,1.4,11,4.4
		c2.8,2.9,4.2,6.9,4.2,12.1c0,10.1-4.2,20.5-12.7,31.9C110,148,94,157.4,76.2,157.4c-9.3,0-16.5-2.7-21.9-8.2
		c-5.4-5.5-8.1-13-8.1-22.5c0-13.9,4.9-28.5,14.6-43.5c1.4,0.1,2.7,0.2,4,0.2c12.4,0,26.8-2.8,42.6-8.2c15.5-5.4,27.9-11.7,37-18.8
		c3.9,6.5,5.9,13,5.9,19.4c0,1.4,0,4.5,2.3,4.5c1.3,0,2.6-1.2,2.6-3.7c0-7-2.5-14.6-7.5-23C153.3,48.6,156,44,156,39.5z M47.9,78.3
		c-24.6-4.8-37.1-15.2-37.1-30.8c0-9,4.8-16.6,14.7-23.3C35.5,17.3,46.9,14,60.2,14c20.6,0,40.4,5.6,58.9,16.8
		C87.6,38.8,63.7,54.7,47.9,78.3z M105.7,71.6c-15.1,4.9-29,7.6-41.6,7.9C71.4,68.9,80.3,59.7,90.4,52c10.2-8.1,21.6-14.1,34-17.9
		c7.3,5.2,13.5,11.6,18.5,19C133.8,60.3,121.5,66.3,105.7,71.6z M146,50.6c-4.6-6.7-10.1-12.6-16.4-17.5c2.9-0.6,5.8-0.9,8.7-0.9
		c14.1,0,14.1,5.5,14.1,7.4C152.5,42.8,150.3,46.5,146,50.6z"/>
</g>
</svg>
